<svg width="165" height="167" viewBox="0 0 165 167" fill="none" xmlns="http://www.w3.org/2000/svg">
    <mask id="mask0_134_62" style="mask-type:luminance" maskUnits="userSpaceOnUse" x="0" y="0"
        width="165" height="167">
        <path d="M0 0H165V167H0V0Z" fill="white" />
    </mask>
    <g mask="url(#mask0_134_62)">
        <path fill-rule="evenodd" clip-rule="evenodd"
            d="M37.2199 138.412C40.2008 137.169 43.4121 135.333 46.7921 132.963C51.3998 129.706 54.6958 126.889 56.6897 124.508C58.0758 122.755 59.1043 120.72 59.7866 118.465C60.668 115.501 61.1191 111.149 61.1191 105.408V104.813C62.4836 103.937 63.6177 103.008 64.4471 101.995C64.4471 106.681 66.5146 109.03 70.6608 109.03C74.2184 109.03 77.1153 107.047 79.33 103.07C80.7264 105.554 82.2269 106.797 83.8225 106.797C86.1531 106.797 87.9687 105.69 89.2492 103.488C90.3513 101.735 90.8968 99.563 90.8968 97.0482C90.8968 95.4408 90.4985 94.0211 89.6483 92.8099C89.3332 92.4661 89.0812 92.3301 88.9029 92.3301C88.7349 92.3301 88.5669 92.5807 88.4198 93.1441C87.8528 95.1272 87.4544 96.5366 87.2545 97.361C88.1998 98.916 88.6509 99.699 88.6509 99.7619C88.2206 100.492 87.2864 100.837 85.922 100.837C84.8094 100.837 83.8433 100.555 83.0771 99.929C82.3109 99.2812 81.9125 98.5714 81.9125 97.8623C81.9125 98.0915 82.1117 97.2981 82.5108 95.545C82.7099 94.6784 82.626 94.2192 82.2588 94.2192C81.9749 94.2192 81.6606 94.4492 81.3247 94.8766C80.2641 96.422 79.2148 98.0398 78.1654 99.6783C76.517 101.817 74.4183 102.924 71.9093 102.924C68.7084 102.924 67.1441 101.797 67.1649 99.5008C67.1649 99.0831 67.26 98.4568 67.4279 97.6952C67.6479 96.8811 67.7631 96.2548 67.7631 95.8896C67.7631 95.545 67.6479 95.3779 67.4279 95.3779C67.1441 95.3779 66.7769 95.5761 66.2626 95.9413C64.667 97.3299 63.0194 98.4568 61.3398 99.3648L60.8568 99.5948C60.6368 96.453 60.3217 92.1008 59.9545 86.5375L58.7052 70.5471C58.7052 70.1507 58.758 69.9836 58.8732 69.9836L59.0204 70.1197C60.1745 71.5076 60.9727 72.207 61.3398 72.207C61.5182 72.207 61.6022 72.071 61.6022 71.7893C61.6022 70.7977 60.0385 66.4456 56.9417 58.7113C56.7737 58.3668 56.6273 58.2204 56.5114 58.2204C56.3754 58.2204 56.2282 58.3668 56.113 58.7113C54.9477 61.4146 54.3599 63.116 54.3599 63.8465C54.9789 65.1198 55.2941 66.7066 55.2941 68.5958C55.2941 70.516 55.7771 78.3441 56.7737 92.1629C56.9944 95.5761 57.2256 98.6032 57.456 101.254L56.5114 101.682C56.3754 101.735 56.2282 101.797 56.113 101.849C56.0075 101.88 55.9131 101.912 55.8611 101.912C54.811 99.7619 53.6145 97.9769 52.2819 96.5366C50.8335 94.9816 49.469 94.2192 48.2197 94.2192C46.4881 94.2192 44.8925 95.0962 43.4753 96.8811C41.8484 98.8014 41.0614 101.035 41.0614 103.571C41.0614 106.88 43.4441 108.55 48.2717 108.55C50.5496 108.55 52.2819 108.321 53.4465 107.872C53.7304 108.55 53.8768 109.229 53.8768 109.959C53.8768 110.836 52.4179 112.62 49.521 115.323C46.3722 118.351 43.045 120.919 39.5498 123.037C35.3196 125.615 31.678 126.909 28.6444 126.909C25.1492 126.909 22.6194 125.834 21.0558 123.694C20.0057 122.139 19.4914 120.354 19.4914 118.32C19.4914 115.982 20.1216 112.62 21.3917 108.205C21.5069 107.611 21.57 107.13 21.57 106.797C21.57 106.629 21.5381 106.546 21.4861 106.546C21.3077 106.546 20.9926 107.026 20.5727 107.955C18.7779 112.443 17.8965 116.796 17.8965 121.033C17.8965 124.342 18.6939 127.107 20.3208 129.31C22.1891 131.804 24.8029 133.046 28.1301 133.046C32.2443 133.046 36.968 131.012 42.2787 126.909C45.8899 124.196 49.2691 121.064 52.3659 117.474C53.6984 115.982 54.727 114.082 55.4308 111.765C56.0603 110.011 56.3754 108.55 56.3754 107.391L56.5114 107.214C56.9736 107.047 57.3935 106.848 57.7607 106.629C58.107 111.879 58.2749 115.219 58.2749 116.66C58.2749 119.373 53.9608 123.267 45.2909 128.412C38.6996 132.42 33.1049 134.456 28.5604 134.456C23.4384 134.456 19.7753 132.65 17.4766 129.059C16.049 126.858 15.314 124.457 15.314 121.858C15.314 119.175 15.9122 116.2 17.0775 113.007C17.4447 112.14 17.6446 111.514 17.6446 111.201C17.6446 110.982 17.5918 110.867 17.4766 110.867C17.2767 110.867 16.8464 111.43 16.2481 112.589C14.6949 115.7 13.8975 119.54 13.8975 124.175C13.8975 127.984 14.7477 131.293 16.3953 134.121C18.7779 138.359 22.7346 140.499 28.2141 140.499C30.4919 140.499 32.9266 140.019 35.5403 139.09C34.8373 141.407 34.4694 143.474 34.4694 145.31C34.4694 148.045 35.2356 150.363 36.8 152.199C38.3533 154.068 40.1481 154.965 42.226 154.965C44.6086 154.965 47.1704 153.587 49.9513 150.759L56.0291 144.235C55.462 146.605 55.2101 148.953 55.2101 151.322C55.2101 153.441 55.6612 155.226 56.5954 156.719C57.7607 158.524 59.3875 159.464 61.4342 159.464C65.0973 159.464 69.4955 157.543 74.5863 153.723C79.4771 150.133 83.4554 146.093 86.4883 141.574C86.8874 140.958 87.1705 139.852 87.3177 138.275C87.4336 137.597 87.4856 136.857 87.4856 136.011C88.399 140.676 89.1652 143.922 89.8162 145.791C90.9288 149.089 92.6292 151.886 94.8959 154.151C97.4048 156.583 100.722 158.472 104.899 159.86C107.89 160.841 110.388 161.353 112.372 161.353C112.887 161.353 113.17 161.134 113.233 160.705L113.715 156.635C113.715 156.124 113.537 155.842 113.233 155.727C106.893 152.846 103.734 150.79 103.734 149.517C103.734 148.013 114.104 143.975 134.855 137.336C135.359 137.169 135.705 136.888 135.841 136.439C136.986 133.642 137.521 132.138 137.521 131.971C137.521 131.804 137.29 131.71 136.87 131.71L126.384 132.138C118.712 132.368 112.351 132.452 107.313 132.452C103.146 132.452 99.9866 132.389 97.8247 132.222C99.4724 130.447 102.233 128.381 106.064 126.012C109.874 123.632 113.055 121.972 115.563 121.033C115.983 122.421 116.413 123.1 116.812 123.1C117.116 123.1 117.295 122.505 117.295 121.294V120.219L120.527 119.311L125.87 117.641C126.416 116.149 126.919 114.541 127.382 112.756C127.382 111.483 125.954 109.907 123.12 107.955C120.307 106.034 118.145 105.075 116.718 105.075C114.766 105.075 113.338 105.753 112.372 107.13C111.606 108.184 111.207 109.479 111.207 111.034C111.207 112.077 111.354 112.923 111.637 113.581L113.233 116.743C104.447 121.033 98.1079 125.615 94.2456 130.469C92.8596 132.191 92.0309 134.341 91.831 136.939L91.747 137.42C91.747 137.983 92.1989 138.275 93.1643 138.275H116.214C111.091 140.196 107.512 141.772 105.477 142.994C103.031 144.455 101.802 147.534 101.802 152.168C95.8724 149.798 91.9989 144.235 90.1514 135.531C89.6163 132.765 89.0812 129.988 88.5669 127.17L87.5696 122.192C86.7514 118.32 85.3869 114.478 83.5074 110.606C81.4926 106.368 80.1802 104.229 79.5819 104.229C79.4139 104.229 79.2988 104.333 79.246 104.563C78.6477 106.713 78.3334 108.404 78.3334 109.625C78.3958 109.625 79.6139 112.903 81.9965 119.478C84.5575 126.492 86.0691 131.71 86.4883 135.186C85.89 137.785 82.7099 141.376 77.0001 145.958C70.8391 150.874 65.8004 153.326 61.8541 153.326C60.4056 153.326 59.2091 152.909 58.2437 152.085C57.2568 151.271 56.7737 149.997 56.7737 148.274C56.7737 146.834 57.0576 144.883 57.6239 142.398L59.3563 140.582C64.9502 134.884 69.957 132.055 74.3343 132.055C76.769 132.055 78.5957 133.099 79.7603 135.186C79.981 135.645 80.1802 135.865 80.3273 135.865C80.3801 135.865 80.4953 135.645 80.6632 135.186C81.2927 133.976 81.5766 132.535 81.5766 130.896C81.5766 129.571 80.9783 128.412 79.7818 127.421C78.5957 126.429 77.1993 125.928 75.5829 125.928C69.873 125.928 63.4177 129.821 56.2074 137.597L48.2717 146.124C45.2909 148.839 42.6778 150.164 40.4632 150.164C39.0147 150.164 37.9022 149.684 37.1359 148.692C36.3378 147.711 35.9706 146.407 35.9706 144.799C35.9706 143.129 36.3697 141.011 37.2199 138.412ZM47.8734 102.841C45.3748 102.841 44.1263 102.277 44.1263 101.17C44.1263 100.179 45.0077 99.6783 46.7921 99.6783C48.0206 99.6783 49.3531 100.638 50.7703 102.496C49.7209 102.726 48.7548 102.841 47.8734 102.841ZM115.469 115.668L115.385 115.584C114.051 112.809 113.369 111.316 113.369 111.118C113.369 110.888 113.653 110.783 114.219 110.783C115.164 110.783 116.413 111.149 117.977 111.848C119.845 112.62 120.79 113.268 120.79 113.748C120.013 114.144 118.229 114.792 115.469 115.668ZM81.2615 58.3668C81.2615 60.6005 81.1463 62.5208 80.9256 64.1593L80.8416 65.9967C80.8416 66.4456 80.8944 66.6437 81.0096 66.6437C81.0623 66.6437 81.2087 66.5291 81.4086 66.2474C83.361 62.3751 84.3264 57.6569 84.3264 52.0936C84.3264 50.8204 84.0432 46.1865 83.5074 38.1913C85.0398 37.4607 86.4043 36.3021 87.5696 34.7153C89.3012 32.3987 90.3513 29.6015 90.7504 26.3555C91.5791 29.549 92.5132 31.9499 93.5633 33.5574C95.4101 36.2392 97.8872 37.596 100.984 37.596C103.912 37.596 106.012 36.0721 107.229 33.0561C107.942 31.2711 108.31 29.2045 108.31 26.8354C108.31 24.4664 107.376 20.6458 105.477 15.4167C104.699 13.0994 104.111 11.2627 103.734 9.96876C103.797 9.80165 103.849 9.7181 103.965 9.7181C105.014 10.4176 105.76 10.7828 106.148 10.7828C106.348 10.7828 106.463 10.6468 106.463 10.3651C106.463 9.76985 104.899 7.22333 101.718 2.76691C101.351 2.30774 101.099 2.08813 100.984 2.08813C100.585 2.08813 99.9554 3.64311 99.0733 6.72275C99.6195 7.50504 99.9866 8.72655 100.155 10.3651C100.522 13.1312 101.267 16.0741 102.317 19.2365C102.8 20.7604 103.681 22.7332 104.899 25.1133C105.896 26.9811 106.379 28.1922 106.379 28.7557C105.665 30.3942 104.133 31.2401 101.802 31.2401C99.1052 31.2401 97.0585 30.1125 95.694 27.8787C94.3296 25.6457 93.2794 21.8673 92.5764 16.5754C91.8629 11.0121 90.8336 6.85806 89.5011 4.14443C89.1652 3.44495 88.9029 3.06933 88.7349 3.06933C88.619 3.06933 88.483 3.33034 88.3358 3.83092C87.3704 6.26284 86.9193 8.18382 86.9193 9.62419C86.9713 9.62419 87.1705 10.198 87.4856 11.3566C88.7029 14.9368 89.3332 18.8712 89.3332 23.1088C89.3332 25.6457 88.5982 27.7959 87.1705 29.5801C86.0899 30.9059 84.7567 31.8035 83.0771 32.3152L82.9931 31.1565C82.1117 18.7773 81.6606 12.4842 81.6606 12.2853C81.6606 11.9408 81.6918 11.7744 81.7446 11.7744C81.807 11.7744 81.8597 11.8365 81.9125 11.9408C83.0771 13.3294 83.8433 14.0074 84.2424 14.0074C84.4207 14.0074 84.5047 13.8617 84.5047 13.58C84.5047 13.0477 83.7073 10.5839 82.0909 6.24213L79.8442 0.533156C79.6139 0.188591 79.4459 0.0214844 79.33 0.0214844C79.2779 0.0214844 79.162 0.188591 78.994 0.533156C77.8815 3.15288 77.3464 4.85426 77.3464 5.5641C77.9343 6.82701 78.2494 8.46554 78.2494 10.4486C78.2494 12.0561 78.7317 19.519 79.6763 32.8786H79.246C77.3152 32.8786 75.8036 32.1481 74.7223 30.6766C73.6521 29.2363 73.1058 27.1696 73.1058 24.5181C73.1058 23.3077 73.4209 20.9593 74.0504 17.4523C74.7014 13.9556 75.0166 11.6383 75.0166 10.5322C75.0166 9.09182 74.6702 8.38198 74.0192 8.38198C73.2218 8.38198 72.3084 9.17537 71.259 10.7303C70.2089 12.3171 69.3587 14.0599 68.6765 15.9802C68.0782 17.7133 67.344 20.3641 66.5146 23.9547C65.7484 27.2635 65.0973 29.4655 64.6143 30.5613C63.8168 32.4298 62.7987 33.3903 61.5182 33.3903C58.5901 33.3903 57.1096 29.9454 57.1096 23.026C57.1096 21.2721 57.3408 19.3201 57.7607 17.1388C57.8759 16.6589 57.939 16.273 57.939 15.9802C57.939 15.5003 57.855 15.2496 57.6767 15.2496C57.5399 15.2496 57.2776 15.8448 56.9417 17.0035C56.2282 19.8007 55.8611 22.3997 55.8611 24.7688C55.8611 28.1922 56.3754 31.1255 57.3616 33.5574C58.5901 36.4167 60.3529 37.857 62.6835 37.857C63.2498 37.857 63.9008 37.4607 64.6462 36.6984C65.4124 35.9368 66.0003 34.7989 66.5146 33.3903C66.8609 32.3987 67.5952 29.4344 68.7605 24.5181C69.6426 20.6458 70.4928 18.1304 71.259 16.9199C71.8253 16.0741 72.1404 15.6777 72.2556 15.6777C72.3716 15.6777 72.4236 15.7613 72.4236 15.8966C72.4236 16.1791 72.3084 16.7218 72.0877 17.4834C71.259 20.4166 70.8391 23.6101 70.8391 27.0861C70.8391 29.6851 71.2375 31.9499 72.0037 33.8702C73.4522 37.2936 75.9819 39.0157 79.5819 39.0157H80.0962C80.8624 50.2044 81.2615 56.6758 81.2615 58.3668ZM113.799 46.9481C115.185 66.3931 115.868 77.0709 115.868 78.9911C115.868 81.1931 115.752 83.1141 115.563 84.7836L115.469 86.5375C115.469 87.0174 115.532 87.2681 115.647 87.2681C115.846 87.2681 116.214 86.6211 116.718 85.3478L116.812 85.2953C118.229 81.7572 118.964 77.5508 118.964 72.6869C118.964 71.163 118.313 61.5292 117.032 43.8167C116.833 40.8213 116.634 38.0767 116.466 35.5405C121.525 29.1838 124.873 24.6017 126.521 21.7734C127.434 19.3726 127.865 17.9115 127.865 17.3998C127.865 17.2852 127.802 17.2017 127.686 17.1388C127.487 17.1388 126.983 17.7133 126.216 18.8091C124.023 21.8045 120.675 26.042 116.13 31.5528C115.469 22.0026 115.133 17.2017 115.133 17.1388C115.133 16.8364 115.164 16.6589 115.217 16.6589C115.269 16.6589 115.332 16.7218 115.385 16.8364C116.612 18.1621 117.4 18.8091 117.798 18.8091C117.977 18.8091 118.061 18.6731 118.061 18.3914C118.061 17.7969 117.211 15.3332 115.563 11.0439L115.301 10.3651L113.285 5.30308C113.201 4.98957 113.055 4.82247 112.887 4.82247C112.771 4.82247 112.635 4.98957 112.456 5.30308C111.354 7.84961 110.808 9.54064 110.808 10.3651C111.406 11.6383 111.721 13.2769 111.721 15.2496C111.721 16.5754 112.152 23.3077 112.971 35.4569C109.906 39.1518 106.41 43.3368 102.484 48.0232C92.0309 60.4024 85.5229 67.948 82.9091 70.7142C81.2087 68.5122 78.4798 65.6315 74.7542 62.0927C70.2089 57.8551 66.6825 54.2756 64.184 51.332C56.6273 42.9087 51.9981 36.8655 50.2873 33.2232C51.8829 33.8177 53.0162 34.1208 53.6984 34.1208C54.0975 34.1208 54.2655 34.0166 54.2655 33.7866C54.2655 33.4738 53.8456 32.9097 52.9322 32.1481L44.2103 24.8523C43.696 24.4035 43.3601 24.1839 43.1289 24.1839C42.8458 24.1839 42.709 24.6017 42.709 25.4261V29.5801C42.709 29.9668 42.877 30.2589 43.2129 30.4777C43.8112 30.7595 44.3782 31.3022 44.8606 32.1481C49.7522 40.4768 55.0109 47.7725 60.6048 54.0767C63.2186 57.0935 66.8817 60.8512 71.6054 65.3498C75.4677 69.0231 78.3118 72.0192 80.0962 74.2737C75.4364 80.2333 73.1058 85.7752 73.1058 90.9207C73.1058 94.2192 74.4183 95.9206 77.0841 95.9413C78.8157 95.9413 80.6944 95.2419 82.7412 93.8015C84.4735 92.6953 85.67 91.5892 86.3203 90.4934C86.7194 89.8981 87.1185 88.9066 87.5384 87.5291C87.9367 86.1405 88.1679 85.0654 88.1679 84.2727C88.1679 82.1846 88.0839 80.8278 87.9159 80.2333C87.5176 78.4587 86.4362 76.1939 84.6727 73.4596C96.7226 59.4729 106.243 48.1696 113.285 39.4956C113.453 41.8129 113.621 44.2973 113.799 46.9481ZM77.5144 89.7628C75.8876 89.7628 75.1005 89.1366 75.1005 87.9254C75.1005 85.6606 77.3992 82.0493 81.9965 77.1019C83.0563 78.6258 84.1056 80.1498 85.1558 81.653C86.2051 83.1141 86.7514 84.2202 86.7514 84.8672C86.7514 85.4099 85.5861 86.3704 83.277 87.7272C80.9783 89.0841 79.0468 89.7628 77.5144 89.7628ZM23.8999 94.8766L23.8055 96.7037C23.8055 97.1835 23.8687 97.4445 23.9839 97.4445C24.0367 97.4445 24.1838 97.2981 24.4038 97.0482C25.4643 94.9291 26.2305 92.56 26.7337 89.9292C28.6652 89.3037 30.376 88.0297 31.7932 86.1094C33.5248 83.7403 34.5534 80.9114 34.8893 77.6654C35.7187 80.8596 36.6841 83.2915 37.7862 84.9508C39.581 87.6644 42.0476 88.9902 45.2069 88.9902C48.1566 88.9902 50.2033 87.4973 51.3686 84.4502C52.082 82.6334 52.4499 80.5461 52.4499 78.177C52.4499 75.7976 51.5469 71.9874 49.6994 66.7273C48.8708 64.41 48.2509 62.6043 47.8734 61.2786C47.9886 61.164 48.0726 61.1115 48.1357 61.1115C49.2379 61.7902 49.9833 62.0927 50.3816 62.0927C50.5816 62.0927 50.6863 61.9574 50.6863 61.6963C50.6863 61.0176 49.1011 58.5132 45.8579 54.1603C45.5428 53.6493 45.2909 53.4194 45.1236 53.4194C44.8397 53.4194 44.2103 54.9433 43.2129 58.054C43.6432 58.5967 43.9264 59.1912 44.0423 59.7761L44.3782 61.6963C44.7558 64.441 45.4588 67.4053 46.4562 70.5471C47.0232 72.1028 47.9046 74.0437 49.1219 76.4239C50.0673 78.3123 50.5496 79.5338 50.5496 80.1498C49.8042 81.8194 48.3037 82.6334 46.0259 82.6334C43.2761 82.6334 41.1974 81.5066 39.8961 79.2521C38.5524 76.9873 37.5343 73.1986 36.8 67.8859C36.0338 62.3226 35.0052 58.1997 33.7248 55.486C33.3888 54.7762 33.1265 54.4109 32.9585 54.4109C32.8426 54.4109 32.7066 54.6616 32.4755 55.1415C31.5413 57.5734 31.0582 59.4944 31.0582 60.9347L31.7092 62.7714C32.8745 66.5291 33.4728 70.4014 33.4728 74.4401C33.4728 76.9873 32.7906 79.1375 31.3941 80.8907C30.3448 82.2164 28.9803 83.1141 27.3007 83.625V82.8945C27.3007 81.2766 26.8808 74.3047 25.9674 61.9263C25.086 49.5782 24.6349 43.274 24.6349 43.0551C24.6349 42.7416 24.6661 42.5752 24.7189 42.5752C24.7821 42.5752 24.8341 42.627 24.8869 42.7416C26.0514 44.0673 26.8496 44.7254 27.2167 44.7254C27.3951 44.7254 27.4791 44.579 27.4791 44.2973C27.4791 43.7546 26.6816 41.333 25.0652 37.0326L22.8186 31.2401C22.6402 30.9584 22.4723 30.8223 22.3043 30.8223C22.2523 30.8223 22.1579 30.9584 21.9899 31.2401C20.8246 33.9227 20.2264 35.6551 20.2264 36.3546C20.9086 37.6278 21.2237 39.2353 21.2237 41.1556C21.2237 42.888 21.738 50.8204 22.7346 65.0052C23.3225 73.7095 23.7528 80.1187 23.9839 84.2202H23.4696C21.5381 84.2202 20.0057 83.4897 18.8931 82.0183C17.791 80.5461 17.2455 78.4794 17.2455 75.8597C17.2455 74.639 17.5606 72.2691 18.2428 68.7621C18.8931 65.2662 19.2394 62.9696 19.2394 61.8427C19.2394 60.4334 18.8931 59.6925 18.2428 59.6925C17.4447 59.6925 16.4793 60.5687 15.314 62.2701C14.3798 63.763 13.5511 65.454 12.8161 67.4053C12.2706 69.0446 11.5356 71.7057 10.6542 75.3488C9.94003 78.5948 9.32096 80.7968 8.83789 81.9554C7.98769 83.8549 6.93833 84.7836 5.65783 84.7836C2.78172 84.7836 1.33326 81.3084 1.33326 74.3572C1.33326 72.5827 1.53244 70.6624 1.93152 68.564C2.0155 67.948 2.07867 67.4889 2.07867 67.1554C2.07867 66.8108 2.0155 66.6437 1.93152 66.6437C1.70039 66.6437 1.41724 67.2072 1.08133 68.3133C0.367874 71.1423 0 73.7095 0 76.0793C0 79.5028 0.51428 82.4353 1.50122 84.8672C2.78172 87.7797 4.5765 89.2512 6.90711 89.2512C7.42139 89.2512 7.98769 88.8859 8.66993 88.0925C9.55209 87.2681 10.2343 86.1723 10.6542 84.7836C11.0526 83.7403 11.7876 80.7443 12.9001 75.8597C13.8135 71.9874 14.6637 69.4409 15.4819 68.2305C15.9962 67.4682 16.3113 67.0718 16.4793 67.0718L16.5632 67.239C16.5632 67.5207 16.4481 68.0634 16.2481 68.8775C15.4611 71.8203 15.062 75.0042 15.062 78.4794C15.062 81.0267 15.4611 83.2597 16.2481 85.2118C17.6758 88.6249 20.1736 90.3263 23.7215 90.3263H24.2358C24.1838 92.0483 24.0679 93.5723 23.8999 94.8766ZM146.012 86.0259C147.072 87.0699 148.059 88.0925 149.004 89.0841C149.571 97.2981 149.854 102.016 149.854 103.237C149.854 105.387 149.77 107.308 149.602 108.947C149.487 109.677 149.424 110.21 149.424 110.606C149.424 111.169 149.508 111.462 149.686 111.514C149.738 111.514 149.822 111.43 149.938 111.232C150.022 111.034 150.305 110.439 150.767 109.447C152.216 105.92 152.919 101.735 152.919 96.8811C152.919 96.422 152.866 95.3254 152.751 93.5723C155.249 96.9957 156.729 100.179 157.159 103.154C157.663 106.201 158.01 107.725 158.178 107.725C158.324 107.725 158.629 105.867 159.09 102.162V100.753C159.09 96.6201 156.813 91.8184 152.268 86.3704C151.985 81.7883 151.554 75.7141 151.019 68.1469C149.738 51.1649 149.088 42.2307 149.088 41.4166C149.088 41.0195 149.119 40.8213 149.172 40.8213L149.34 40.9884C150.567 42.3142 151.354 42.9715 151.754 42.9715C151.922 42.9715 152.016 42.8569 152.016 42.5752C152.016 42.0111 151.218 39.5791 149.602 35.2795L147.355 29.4862C147.177 29.1527 147.041 28.9856 146.925 28.9856C146.757 28.9856 146.611 29.1527 146.495 29.4862C145.33 32.0852 144.763 33.7555 144.763 34.5489C145.361 35.8222 145.677 37.4297 145.677 39.4128C145.677 41.1348 146.39 51.6973 147.755 71.1423L148.521 82.1329L148.174 81.7883L141.268 75.0042C140.985 70.4325 140.586 64.7235 140.103 57.8869C138.717 39.4128 138.035 30.0607 138.035 29.9143C138.035 29.3509 138.15 29.2363 138.35 29.5801C140.082 31.5528 140.932 32.117 140.932 31.2401C140.932 30.9059 140.869 30.4467 140.764 29.9143C140.502 29.1209 139.736 27.1171 138.518 23.8711C137.29 20.7604 136.524 18.8712 136.188 18.1621C136.072 17.8176 135.957 17.6505 135.841 17.6505C135.705 17.6505 135.558 17.8176 135.443 18.1621C134.278 20.7922 133.69 22.4833 133.69 23.1923C134.309 24.4664 134.593 26.0731 134.593 27.9941C134.593 30.1443 135.359 41.2184 136.87 61.195C137.122 64.8898 137.384 68.2823 137.605 71.3612L137.269 71.0484C132.43 66.1949 129.512 62.8343 128.452 60.9347C129.995 61.2786 131.097 61.4457 131.78 61.4457C132.241 61.4457 132.43 61.3621 132.43 61.195C132.43 60.9658 132.147 60.6316 131.528 60.1199L123.708 54.2438C123.204 53.7847 122.836 53.5658 122.637 53.5658C122.344 53.5658 122.207 53.9828 122.207 54.8073V58.962C122.207 59.4108 122.375 59.6925 122.721 59.8596C123.32 60.256 123.887 60.7987 124.369 61.5292L126.521 65.1723C127.749 67.2072 128.945 68.9085 130.111 70.2861C131.78 72.2381 134.194 74.7225 137.353 77.8325L138.119 78.4794C138.717 87.4973 139.033 92.5282 139.033 93.6248C139.033 96.453 138.738 98.0915 138.172 98.5197C136.356 100.075 134.456 100.837 132.43 100.837C130.562 100.837 129.029 100.555 127.865 99.929C126.699 99.3966 125.555 98.3422 124.453 96.7976L122.123 92.977C121.178 91.5892 120.16 90.9207 119.048 90.9207C117.546 90.9207 115.899 91.7873 114.135 93.5723C112.351 95.3254 110.84 97.4135 109.559 99.8454C108.457 102.329 107.313 104.813 106.148 107.308L105.477 108.8C104.08 111.263 102.632 112.506 101.068 112.506C97.0585 112.506 95.0742 108.237 95.0742 99.6783C95.0742 97.9244 95.2422 95.7432 95.5573 93.1441C95.6725 92.1008 95.6101 91.5685 95.4101 91.5685C95.1902 91.5685 94.9278 92.0173 94.6439 92.8935C93.8777 95.2633 93.4794 98.4568 93.4794 102.496C93.4794 105.867 94.1928 109.082 95.5573 112.193C97.1209 115.721 99.0213 117.474 101.236 117.474C102.768 117.474 104.248 116.482 105.644 114.509C106.463 113.184 107.46 111.065 108.625 108.122C109.79 105.21 110.609 103.404 111.039 102.757C113.6 98.8849 116.046 96.9647 118.365 96.9647C119.111 96.9647 119.824 97.497 120.527 98.6032C121.378 100.044 122.207 101.431 123.026 102.757C124.306 104.73 125.954 106.003 127.949 106.546C128.83 106.828 130.331 106.964 132.43 106.964C134.876 106.964 137.038 105.523 138.938 102.674C141.047 99.313 142.097 94.6474 142.097 88.6877C142.097 87.8315 141.981 85.6081 141.751 81.9554L146.012 86.0259ZM66.0003 146.949C66.1155 146.949 66.4618 146.751 67.0289 146.375C68.3933 145.394 69.5586 144.204 70.4401 142.847C71.3215 141.49 71.7733 140.301 71.7733 139.257C71.7733 137.879 71.2375 137.2 70.1777 137.2C68.7293 137.2 67.8263 138.014 67.4279 139.654L67.344 140.332L67.5119 140.415L68.0262 140.081C68.3094 139.915 68.6133 139.82 69.0124 139.82C69.7266 139.82 70.1249 140.217 70.1777 140.979C70.1777 141.856 69.0124 143.557 66.6825 146.041C66.2307 146.552 66.0003 146.803 66.0003 146.856V146.949ZM113.055 154.235C113.768 154.235 115.7 153.838 118.796 153.076C120.842 152.512 122.092 152.252 122.543 152.252C122.973 152.252 124.222 151.667 126.3 150.508C128.945 149.12 131.045 147.565 132.609 145.791C133.491 144.736 134.225 143.359 134.761 141.658C135.222 142.2 135.905 142.795 136.807 143.38C137.72 144.006 138.455 144.288 139.033 144.288C139.683 144.288 140.219 143.494 140.586 141.919C140.701 141.574 140.764 141.209 140.764 140.812C140.764 139.82 140.502 138.975 139.935 138.275C139.368 137.535 138.801 137.2 138.172 137.2C137.29 137.2 136.472 137.963 135.705 139.518L135.443 139.424C135.275 139.424 135.138 139.487 135.023 139.57C134.141 140.958 133.491 142.086 133.112 142.994C132.063 144.518 129.648 146.323 125.87 148.358C120.643 150.79 116.812 152.481 114.303 153.504C113.401 153.869 112.971 154.12 112.971 154.235H113.055ZM139.515 141.919C139.337 141.887 139.221 141.887 139.117 141.835C138.004 141.323 137.154 140.843 136.608 140.415C136.954 139.915 137.353 139.654 137.867 139.654C138.203 139.654 138.539 139.883 138.885 140.28C139.253 140.697 139.452 141.073 139.515 141.407V141.919ZM86.3203 166.979C89.5643 166.979 92.1773 166.05 94.2456 164.181C94.7279 163.733 94.9902 163.472 94.9902 163.42L94.8959 163.336L93.9936 163.586C91.663 164.234 89.4692 164.578 87.4016 164.578C85.187 164.578 84.0744 164.098 84.0744 163.106C84.0744 162.657 84.3264 162.115 84.8406 161.52L88.0839 158.222C89.5851 156.604 90.3305 155.362 90.3305 154.485C90.3305 153.326 89.134 152.742 86.7514 152.742C85.6908 152.742 84.9246 152.93 84.4416 153.274C83.9904 153.64 83.5601 154.318 83.1611 155.309L83.0771 155.643H83.4234C84.0217 155.309 84.6415 155.143 85.2397 155.143C86.2363 155.143 87.2025 155.278 88.0839 155.56C88.3046 155.675 88.4198 155.79 88.4198 155.904C88.4198 156.019 88.3678 156.103 88.2518 156.207C87.0865 157.366 85.89 158.639 84.7039 159.996C83.5074 161.321 82.9091 162.741 82.9091 164.181C82.9091 164.995 83.2242 165.674 83.8753 166.185C84.5047 166.728 85.3237 166.979 86.3203 166.979ZM53.4465 16.2412C53.6145 16.2412 53.8768 16.1576 54.1815 15.9802L58.107 14.6026C59.2091 14.091 60.4369 13.3604 61.7701 12.3689C62.8827 11.5237 63.8168 10.5839 64.6143 9.54064L67.0289 9.80165C67.2808 9.80165 67.5639 9.48814 67.8471 8.86186C68.131 8.26737 68.2781 7.61965 68.2781 6.88912C67.6479 5.5641 66.4826 4.40544 64.7822 3.41389C64.2679 3.18394 63.8168 3.06933 63.4497 3.06933C63.0506 3.06933 62.7355 3.21573 62.4836 3.46565C62.2212 3.69561 62.1164 4.02982 62.1164 4.40544C62.1164 4.68716 62.1692 5.02137 62.2844 5.38664C61.8853 6.06467 61.6861 6.77451 61.6861 7.56789C61.6861 8.49659 62.3684 9.09182 63.6697 9.37353C62.6203 10.4176 61.1511 11.4919 59.1883 12.5988L54.0448 15.6777C53.5833 15.9284 53.3625 16.0955 53.3625 16.1576C53.3625 16.2101 53.3945 16.2412 53.4465 16.2412ZM67.344 8.21488H67.1649C65.9163 8.04777 65.2133 7.93316 65.0973 7.88066C65.2653 7.40079 65.3493 6.74345 65.3493 5.98112C66.2307 6.37818 66.8817 6.97267 67.26 7.78676L67.344 8.21488ZM64.4471 7.78676C63.1034 7.5886 62.4524 7.28618 62.4524 6.88912C62.4524 6.72275 62.5995 6.46174 62.9354 6.09647C63.2817 5.76226 63.5337 5.5641 63.6697 5.5641C64.016 5.5641 64.2679 5.84581 64.4471 6.40924L64.5303 7.13978L64.4471 7.78676ZM100.386 106.316L101.152 105.889C102.086 105.189 102.884 104.333 103.513 103.373C104.164 102.413 104.479 101.567 104.479 100.837C104.479 99.8454 104.049 99.3648 103.23 99.3648C102.285 99.3648 101.666 99.96 101.404 101.17L101.32 101.599L101.404 101.682C101.466 101.682 101.582 101.599 101.802 101.452C102.033 101.317 102.285 101.254 102.568 101.254C103.052 101.254 103.314 101.536 103.314 102.078C103.314 102.694 102.516 103.884 100.9 105.638C100.554 106.034 100.386 106.254 100.386 106.316ZM122.207 17.3163C123.026 17.3163 123.687 16.2412 124.107 14.091V13.841C124.055 13.841 123.991 13.8928 123.939 14.0074C123.403 14.9368 122.942 15.4167 122.637 15.4167C121.955 15.4167 121.609 14.8008 121.609 13.58C121.609 12.7031 121.976 11.1585 122.721 8.94541C122.858 8.46554 122.942 8.16312 122.942 8.04777C122.889 8.04777 122.742 8.32948 122.459 8.86186C121.294 10.981 120.695 12.9952 120.695 14.9161C120.695 16.5229 121.21 17.3163 122.207 17.3163ZM73.5049 166.154C73.6201 166.154 73.956 165.956 74.5023 165.569C75.8876 164.578 77.0313 163.42 77.9135 162.062C78.8157 160.705 79.246 159.516 79.246 158.441C79.246 157.032 78.6797 156.301 77.5144 156.301C76.1811 156.301 75.3205 157.147 74.9222 158.869L74.8382 159.548L75.0166 159.599L75.4364 159.38C75.7508 159.15 76.1187 159.036 76.517 159.036C77.2312 159.036 77.6296 159.432 77.6823 160.195C77.6823 161.071 76.517 162.772 74.1872 165.257C73.7361 165.736 73.5049 166.05 73.5049 166.154ZM87.6536 53.5658C87.7688 53.5658 88.1367 53.3669 88.7349 52.9188C90.5825 51.6973 92.0621 50.1734 93.2274 48.3677C94.392 46.5311 94.9902 44.9753 94.9902 43.6503C94.9902 41.8129 94.2768 40.9049 92.8283 40.9049C91.0967 40.9049 89.9842 42.0111 89.5011 44.2137L89.3332 45.1424L89.5011 45.226C89.6163 45.226 89.8474 45.0907 90.2146 44.8082C90.5505 44.5265 91.0127 44.3809 91.5791 44.3809C92.5132 44.3809 92.9963 44.9132 92.9963 45.9669C92.9963 47.0109 91.4951 49.1293 88.483 52.3443C87.9367 53.0016 87.6536 53.4194 87.6536 53.5658ZM92.8283 75.0042C92.9435 75.0042 93.2482 74.8164 93.8257 74.4401C95.211 73.4596 96.3235 72.2691 97.2049 70.9123C98.0551 69.5555 98.4854 68.3658 98.4854 67.3218C98.4854 65.9442 97.9399 65.2662 96.8906 65.2662C95.5261 65.2662 94.6127 66.0803 94.2456 67.7188C94.1928 68.1152 94.1296 68.3451 94.0776 68.3969L94.2456 68.4804C94.308 68.4804 94.4448 68.3658 94.7279 68.1987C95.0118 68.0005 95.3893 67.8859 95.8092 67.8859C96.5546 67.8859 96.8906 68.3133 96.8906 69.1274C96.8906 69.9836 95.7565 71.6222 93.4794 74.1066C93.0595 74.6175 92.8283 74.9 92.8283 75.0042ZM107.974 61.3621C109.255 61.3621 110.158 59.8596 110.724 56.8954V56.4776L110.64 56.5611C110.588 56.5611 110.525 56.5818 110.504 56.6447C110.472 56.6965 110.472 56.7593 110.472 56.8118C109.759 58.1368 109.14 58.7949 108.625 58.7949C107.691 58.7949 107.229 57.9387 107.229 56.2166C107.229 55.0062 107.743 52.8242 108.793 49.6935L109.056 48.4513C108.993 48.4513 108.856 48.6805 108.625 49.0983C108.541 49.2129 108.457 49.3489 108.394 49.5264C106.778 52.4907 105.98 55.3396 105.98 58.054C105.98 60.256 106.631 61.3621 107.974 61.3621ZM6.50802 62.1762C6.62322 62.1762 6.93832 61.9884 7.50537 61.6128C8.89066 60.6316 10.0344 59.4419 10.9062 58.0851C11.7876 56.7282 12.2491 55.5385 12.2491 54.4945C12.2491 53.117 11.6508 52.4382 10.4863 52.4382C9.17381 52.4382 8.2924 53.2841 7.92527 54.9744L7.84129 55.5696L7.98769 55.6531C8.04046 55.6531 8.20842 55.5385 8.49157 55.3396C8.77472 55.1733 9.12179 55.0579 9.48892 55.0579C10.2343 55.0579 10.6015 55.486 10.6542 56.3001C10.6542 57.1246 9.48892 58.7949 7.15905 61.2786C6.73915 61.7902 6.50802 62.072 6.50802 62.1762ZM30.4079 34.2147C30.8903 34.2147 31.3941 32.9622 31.8772 30.4777C32.6746 25.9585 33.3888 23.6937 34.0391 23.6937C34.3854 23.6937 34.6901 23.8918 35.0052 24.2674C35.3196 24.6645 35.4876 24.8523 35.5403 24.8523C35.8339 24.8523 36.0338 24.6327 36.1386 24.1839C36.2538 23.7565 36.317 23.412 36.317 23.1923C36.317 22.8796 36.1178 22.4515 35.7715 21.9509C35.4036 21.4703 35.0052 21.2093 34.5534 21.2093C33.7872 21.2093 33.0425 22.0026 32.3915 23.6101C31.6565 26.4384 31.195 28.7246 30.9742 30.4777C30.9118 30.7077 30.859 30.8223 30.7959 30.8223H30.7119V30.4777C30.4079 28.4429 29.7777 26.5848 28.8435 24.8834C27.9309 23.2138 27.0176 22.3679 26.1354 22.3679C26.0306 22.3679 25.7683 22.7125 25.3484 23.3595C24.95 24.0382 24.7189 24.4035 24.7189 24.5181C24.7189 24.7998 24.9708 25.1651 25.4851 25.5932C25.9674 26.042 26.3665 26.272 26.6497 26.272C26.9128 26.272 27.0807 26.2091 27.1327 26.1049C27.1959 25.9895 27.3007 25.9274 27.4791 25.9274C27.763 25.9274 28.2661 27.0646 29.0643 29.3191C29.8305 31.5846 30.2296 33.025 30.2296 33.6195C30.2296 33.9537 30.292 34.1519 30.4079 34.2147ZM45.1236 20.2288C46.173 20.2288 46.9392 18.9548 47.3695 16.4083V16.0741H47.2751V16.1576L47.1072 16.3247C46.5721 17.4309 46.0259 17.995 45.5428 17.995C44.7558 17.995 44.3782 17.2327 44.3782 15.7613C44.3782 14.7172 44.8085 12.8495 45.7219 10.198C45.9211 9.60349 46.0259 9.22713 46.0259 9.12287C45.9211 9.12287 45.7427 9.45708 45.4588 10.1041C44.0735 12.6506 43.3913 15.0825 43.3913 17.3998C43.3913 19.289 43.9583 20.2288 45.1236 20.2288ZM31.6253 120.636C32.1923 120.636 32.6746 119.426 33.0425 116.994C33.672 113.664 34.323 112.026 35.0573 112.026C35.3724 112.026 35.6875 112.224 35.9706 112.589C36.2538 112.985 36.4217 113.184 36.5377 113.184C36.7681 113.184 36.968 112.903 37.1359 112.36C37.2511 112.026 37.3039 111.744 37.3039 111.514C37.3039 111.263 37.104 110.836 36.7056 110.324C36.3378 109.792 35.9394 109.531 35.5403 109.531C34.7741 109.531 34.0391 110.324 33.3888 111.942C32.7378 114.144 32.3387 115.804 32.2235 116.91L32.0556 117.307C31.9924 117.307 31.9612 117.307 31.9612 117.276C31.9612 117.244 31.9404 117.108 31.8772 116.91C31.6253 115.021 31.0798 113.518 30.3136 112.36C29.5258 111.201 28.6444 110.606 27.647 110.606C27.5318 110.606 27.2799 110.951 26.9128 111.65C26.5137 112.328 26.3145 112.725 26.3145 112.84C26.3145 113.122 26.5345 113.487 27.0176 113.915C27.4791 114.364 27.8782 114.593 28.1301 114.593C28.4132 114.593 28.5812 114.509 28.6132 114.364C28.6444 114.228 28.7596 114.166 28.9803 114.166C29.2426 114.166 29.7257 115.021 30.4079 116.681C31.0582 118.382 31.3941 119.457 31.3941 119.937C31.3941 120.386 31.4781 120.636 31.6253 120.636ZM23.2385 106.483C23.3856 106.483 23.7007 106.4 24.1519 106.233C24.5822 106.056 24.9708 105.92 25.3172 105.805C27.3639 105.043 28.5292 104.563 28.8123 104.396C30.1456 103.801 31.6253 102.924 33.2209 101.766C34.6062 100.753 35.7715 99.6155 36.7056 98.3422C37.5031 98.8539 37.9861 99.2502 38.2165 99.5008C38.9307 98.4568 39.2979 97.7263 39.2979 97.2774C39.0667 96.9647 38.5524 96.5676 37.7022 96.1188C38.1013 94.9601 38.3005 93.9065 38.3005 92.977C38.3005 91.7038 37.8494 91.0879 36.968 91.0879C36.3378 91.0879 35.6555 91.4221 34.8893 92.1629C33.8399 93.0399 33.3049 94.0521 33.3049 95.2108C33.3049 96.1395 34.1231 97.0482 35.8027 97.8623C34.5222 99.1356 32.6434 100.555 30.1456 102.078L23.8999 105.721C23.3856 106.056 23.1545 106.285 23.1545 106.4L23.2385 106.483ZM36.8 95.6389C35.4564 94.9601 34.8053 94.4492 34.8053 94.0521C34.8053 93.885 34.9733 93.7187 35.2884 93.5198C35.6347 93.3216 35.8867 93.2381 36.0546 93.2381C36.6001 93.2381 36.884 93.6869 36.884 94.6474L36.8 95.6389ZM35.2044 52.0936C36.7056 52.0936 37.7342 51.0814 38.3005 49.0147C38.7836 50.6222 39.6338 51.4156 40.7991 51.4156C41.5653 51.4156 42.1948 50.8832 42.6251 49.7771C43.0138 48.9312 43.2129 48.1067 43.2129 47.2926C43.2129 46.8438 43.0138 46.2175 42.6251 45.3724C42.142 44.0156 41.8484 43.3058 41.7957 43.3058C41.6805 42.9405 41.5965 42.4917 41.5437 41.98C41.4813 41.5001 41.4286 41.2495 41.3654 41.2495C41.2606 41.2495 41.0822 41.4476 40.8303 41.8654C40.5784 42.2935 40.4632 42.7941 40.4632 43.3893C40.4632 44.4326 41.0614 45.9883 42.226 48.0232C42.0476 48.5866 41.6805 48.8691 41.1454 48.8691C39.8121 48.8691 39.1299 48.0025 39.1299 46.3011C39.1299 45.6852 38.9827 44.7461 38.6684 43.535C38.3533 42.2935 38.1013 41.6672 37.8702 41.6672C37.8182 41.6672 37.6814 41.8654 37.4823 42.3142C37.2511 42.7734 37.1359 43.0862 37.1359 43.3058C37.1359 43.4729 37.2511 44.0466 37.5031 45.0071C37.7654 45.9669 37.8702 46.6457 37.8702 47.042C37.8702 47.689 37.6183 48.2842 37.1359 48.7855C36.6217 49.2654 36.1178 49.5264 35.5403 49.5264C35.1204 49.5264 34.7533 49.2129 34.5222 48.6184C34.2702 48.0025 34.1231 47.4287 34.1231 46.8645C34.1231 46.5828 34.1863 46.27 34.2702 45.8833C34.3542 45.487 34.3854 45.0071 34.3854 44.3809C34.3854 43.3368 34.239 42.7941 33.9871 42.7416C33.7032 42.7416 33.3257 42.9715 32.8745 43.4729C32.4443 43.9838 32.2235 44.5265 32.2235 45.1424C32.2235 45.3931 32.3603 45.5913 32.6434 45.7059C32.9058 45.8212 33.0425 45.9669 33.0425 46.134V48.6184C33.0425 49.7246 33.2729 50.5697 33.7248 51.1856C34.155 51.7809 34.6693 52.0936 35.2044 52.0936ZM53.6984 87.5291C53.8768 87.5291 54.1287 87.4662 54.4439 87.3516L54.7798 87.1845C58.0438 85.9741 59.8386 85.2953 60.0905 85.1282C61.7174 84.4502 63.4497 83.4268 65.2653 82.0493C66.9449 80.8278 68.3094 79.5028 69.3587 78.0935C70.2929 78.5733 70.8599 79.054 71.0911 79.471C71.9725 78.2813 72.4236 77.3836 72.4236 76.8409C72.1404 76.4549 71.5422 75.9751 70.608 75.4316C71.0383 74.0437 71.259 72.8333 71.259 71.7893C71.259 70.2861 70.7232 69.5555 69.6738 69.5555C69.0124 69.5555 68.2254 69.9836 67.26 70.7977C66.0315 71.9039 65.4333 73.0832 65.4333 74.3572C65.4333 75.4634 66.3778 76.5067 68.2781 77.4983C66.8289 78.9911 64.667 80.6296 61.7701 82.3835L54.4439 86.6728C53.8984 87.0699 53.6145 87.3309 53.6145 87.4455L53.6984 87.5291ZM69.4427 74.8371C67.9422 74.1376 67.1649 73.5432 67.1649 73.0315C67.1649 72.8644 67.3648 72.6662 67.7631 72.4363C68.1622 72.2381 68.4454 72.1235 68.6765 72.1235C69.1283 72.1235 69.4427 72.4363 69.5899 73.115V73.5432C69.5899 73.9602 69.5267 74.4193 69.4427 74.8371ZM62.5995 123.183C67.7631 120.981 72.3084 119.196 76.2651 117.818C76.4858 117.641 76.769 117.108 77.1681 116.149L77.252 115.835C77.252 115.721 77.2312 115.668 77.1681 115.668L76.6642 115.835C68.9604 118.403 64.6143 119.937 63.5857 120.386C63.1658 121.378 62.8195 122.306 62.5995 123.183ZM91.663 81.7358C91.831 81.7358 91.9989 81.6737 92.1989 81.5901C92.398 81.5066 92.5764 81.4541 92.7444 81.392C96.0084 80.1808 97.8032 79.5028 98.0551 79.3357C99.6715 78.6569 101.404 77.6343 103.23 76.2568C104.899 75.0353 106.243 73.7095 107.313 72.3009C108.257 72.7808 108.825 73.2607 109.056 73.6785C109.937 72.4052 110.388 71.5386 110.388 71.0484C110.105 70.6624 109.507 70.1818 108.573 69.6391C108.993 68.2512 109.224 67.04 109.224 65.9967C109.224 64.4935 108.677 63.763 107.628 63.763C106.977 63.763 106.18 64.1911 105.213 65.0052C103.996 66.1114 103.398 67.2907 103.398 68.564C103.398 69.6709 104.332 70.7142 106.211 71.7057C104.794 73.1986 102.632 74.8164 99.7347 76.5903C98.4542 77.3001 97.2049 78.0624 95.9772 78.824C93.0595 80.4943 91.5791 81.423 91.5791 81.653L91.663 81.7358ZM107.407 69.0446C105.896 68.3451 105.129 67.7188 105.129 67.239C105.129 67.009 105.329 66.7901 105.728 66.5602C106.127 66.362 106.41 66.2474 106.631 66.2474C107.092 66.2474 107.376 66.5912 107.544 67.3218V67.7188C107.544 68.1676 107.491 68.6268 107.407 69.0446ZM111.805 130.469C118.964 127.504 125.219 125.051 130.615 123.1C130.846 122.953 131.129 122.39 131.528 121.461L131.612 121.117C131.612 121.012 131.559 120.95 131.444 120.95L120.958 124.676C118.177 125.73 115.469 126.711 112.803 127.672C112.351 128.663 112.037 129.592 111.805 130.469ZM95.7253 12.9323C95.8404 12.8805 96.0084 12.6195 96.2395 12.2018C96.7226 11.0439 96.9745 9.76985 96.9745 8.38198C96.9745 5.08348 95.7253 2.5059 93.2274 0.668467L93.0803 0.584914C93.0275 0.584914 92.8283 0.845926 92.5452 1.34725C92.2301 1.82712 92.0621 2.10884 92.0621 2.17169C92.0621 2.28629 92.1149 2.36985 92.2301 2.42235C94.7911 4.68716 96.0612 7.17157 96.0612 9.8852V10.3651C95.8932 11.1792 95.778 11.7426 95.694 12.0561C95.6101 12.3689 95.5573 12.5988 95.5573 12.7659C95.5573 12.8805 95.5781 12.9323 95.6413 12.9323H95.7253ZM28.2981 42.1471C33.5248 39.9444 38.1013 38.1602 42.0476 36.7819C42.2475 36.6148 42.5307 36.0411 42.877 35.1124C42.9922 34.9453 43.045 34.7989 43.045 34.7153L42.961 34.6317C42.6778 34.6317 38.1645 36.1875 29.3794 39.3499C28.8963 40.3415 28.5292 41.2702 28.2981 42.1471ZM62.7675 45.6223C68.2254 44.1302 72.9906 42.9715 77.0841 42.1471C77.3672 41.98 77.7663 41.5001 78.2494 40.6542C78.3646 40.5086 78.4173 40.3725 78.4173 40.2579C78.4173 40.1951 78.3646 40.1744 78.2494 40.1744L64.184 42.9715C63.5857 43.932 63.1034 44.8082 62.7675 45.6223ZM70.0098 55.1415C71.5214 55.1415 72.5395 54.1292 73.1058 52.0936C73.5889 53.6804 74.4183 54.4945 75.5829 54.4945C76.381 54.4945 76.9689 53.9311 77.4304 52.8242C77.7975 52.0101 77.9974 51.1856 77.9974 50.3405C77.9974 49.9227 77.7975 49.2654 77.4304 48.4513C76.9161 47.0627 76.633 46.3847 76.601 46.3847C76.4858 45.9883 76.4018 45.5395 76.3491 45.0589C76.2866 44.548 76.2339 44.2973 76.1811 44.2973C76.0659 44.2973 75.8876 44.5265 75.6356 44.9132C75.3837 45.3406 75.2685 45.8523 75.2685 46.4682C75.2685 47.5226 75.8348 49.0465 77.0001 51.1021C76.8321 51.6448 76.4858 51.9265 75.9188 51.9265C74.5863 51.9265 73.9352 51.0814 73.9352 49.3489C73.9352 48.7641 73.7569 47.825 73.4737 46.5828C73.169 45.3406 72.9067 44.7254 72.6859 44.7254C72.6235 44.7254 72.4868 44.9443 72.2556 45.3724C72.0253 45.8212 71.9093 46.1658 71.9093 46.3847C71.9093 46.5311 72.0565 47.0945 72.3084 48.086C72.5395 49.0465 72.6859 49.7246 72.6859 50.0898C72.6859 50.7686 72.4236 51.332 71.9093 51.8437C71.427 52.3443 70.8912 52.5742 70.3561 52.5742C69.8946 52.5742 69.5586 52.2925 69.2956 51.6663C69.0444 51.0814 68.9284 50.4862 68.9284 49.9434C68.9284 49.6617 68.9604 49.3282 69.0444 48.9312C69.1283 48.5659 69.1908 48.0542 69.1908 47.4598C69.1908 46.4157 69.0444 45.8523 68.7605 45.7894C68.4773 45.7894 68.131 46.0504 67.6791 46.5311C67.228 47.042 67.0289 47.6062 67.0289 48.1903C67.0289 48.5349 67.1441 48.733 67.4279 48.8166C67.7111 48.9001 67.8471 49.0147 67.8471 49.1818V51.6663C67.8471 52.7724 68.0782 53.6176 68.5085 54.2438C68.9604 54.8391 69.4747 55.1415 70.0098 55.1415ZM98.9053 96.1188C104.111 93.9065 108.657 92.1319 112.551 90.744C112.834 90.5769 113.139 90.0445 113.453 89.0841C113.569 88.9066 113.621 88.792 113.621 88.6877L113.537 88.6042L99.9027 93.3216C99.4516 94.3028 99.1052 95.2419 98.9053 96.1188ZM121.609 83.7085C121.777 83.5422 121.955 83.4268 122.123 83.3751L129.533 78.3959C129.816 78.1977 130.048 77.6343 130.279 76.7574L130.363 76.2568C130.363 76.1414 130.331 76.0793 130.279 76.0793C129.932 76.0793 129.05 76.5903 127.602 77.5818C126.72 78.0935 126.132 78.3123 125.786 78.3123C125.45 78.3123 124.967 78.177 124.338 77.8325C123.687 77.4983 123.372 77.1855 123.372 76.9348C123.372 76.6428 123.624 76.3403 124.107 75.9751C124.621 75.5987 125.073 75.4316 125.45 75.4316C125.901 75.4316 126.269 75.7451 126.521 76.3403C126.636 76.4549 126.72 76.5067 126.783 76.5067L126.867 76.4239C127.382 75.6616 127.602 74.9517 127.602 74.3572C127.602 73.3657 127.235 72.8644 126.437 72.8644C125.335 72.8644 123.991 73.762 122.459 75.5987C121.724 76.4756 121.378 77.3836 121.378 78.3123C121.378 79.1057 122.092 79.7527 123.54 80.3169C122.322 81.2559 121.693 81.9029 121.672 82.2682C121.64 82.6127 121.577 83.0098 121.472 83.4586L121.609 83.7085ZM5.59466 107.955C7.12709 107.955 8.92187 107.611 10.9062 106.88C12.417 106.348 13.4352 105.867 13.9814 105.471C15.2619 104.594 15.9122 104.135 15.9122 104.083H15.23C11.8507 104.907 9.72005 105.356 8.83789 105.471C7.95648 105.575 7.10628 105.638 6.34007 105.638C4.54529 105.638 3.66313 105.387 3.66313 104.907C3.66313 104.73 3.89426 104.51 4.34537 104.229C6.05691 103.404 7.32626 102.643 8.15565 101.912C9.20577 101.087 10.2024 99.8454 11.0845 98.2061L11.5668 98.2897C13.5296 98.5404 14.4957 98.7178 14.4957 98.7703C14.8316 98.7703 15.1988 98.3422 15.6603 97.5281C16.1121 96.7037 16.3113 95.9413 16.3113 95.2108C16.3113 95.0437 16.2481 94.8766 16.1642 94.7309C15.3771 92.8417 13.7815 91.255 11.3365 89.9292C10.6542 89.5854 10.056 89.4183 9.48892 89.4183C8.95383 89.4183 8.49157 89.5854 8.12444 89.9292C7.75731 90.2427 7.58935 90.7226 7.58935 91.3075C7.58935 91.7038 7.67333 92.1844 7.84129 92.7271C7.27424 93.8229 6.99109 94.8145 6.99109 95.7225C6.99109 96.9329 8.0085 97.6952 10.0872 98.0398C9.40494 98.9685 8.40759 99.8972 7.07507 100.837L4.34537 102.757C3.21202 103.686 2.66653 104.793 2.66653 106.056C2.66653 107.329 3.63192 107.955 5.59466 107.955ZM14.9996 96.5366H14.4957C12.9313 96.317 12.0707 96.1713 11.9028 96.1188C12.0707 95.5243 12.1651 94.6474 12.1651 93.4887C13.4352 94.0211 14.3486 94.8455 14.9156 95.9413L14.9996 96.3695V96.5366ZM10.8222 95.9413C9.00585 95.7432 8.07167 95.3254 8.07167 94.7309C8.07167 94.501 8.32361 94.1675 8.77472 93.6869C9.25779 93.207 9.60411 92.977 9.83524 92.977C10.2863 92.977 10.5702 93.3423 10.7382 94.0521C10.8534 94.4492 10.9062 94.8145 10.9062 95.2108L10.8222 95.9413ZM92.3141 90.5769C99.4724 87.6126 105.76 85.1807 111.123 83.2915C111.354 83.0616 111.669 82.5292 112.068 81.653L112.152 81.2249L112.068 81.0578L101.404 84.8672C98.6222 85.8587 95.9244 86.8503 93.3114 87.8315C92.8811 88.8548 92.5452 89.7628 92.3141 90.5769ZM120.79 89.9292C126.017 87.7272 130.594 85.9112 134.54 84.5337C134.739 84.3563 135.023 83.8239 135.359 82.8945C135.474 82.717 135.537 82.5817 135.537 82.4671L135.443 82.3835L134.855 82.5506C130.299 84.1056 126.069 85.577 122.123 87.0174C122.008 87.0174 121.924 87.0485 121.861 87.101C121.378 88.0925 121.01 89.0212 120.79 89.9292ZM127.686 44.548C127.802 44.548 128.032 44.2448 128.368 43.6503C129.029 42.1471 129.365 40.5086 129.365 38.6711C129.365 34.5489 127.749 31.2711 124.537 28.9021L124.285 28.7557L124.107 28.9021C123.508 30.0607 123.204 30.7077 123.204 30.8223C123.204 30.9266 123.256 31.0419 123.372 31.1565C126.584 34.0166 128.2 37.1472 128.2 40.5921L128.116 41.8336C127.781 43.2533 127.602 44.0991 127.602 44.2973C127.602 44.4644 127.634 44.548 127.686 44.548ZM119.226 52.3443C124.422 50.1209 128.998 48.3367 132.944 46.9481C133.176 46.781 133.428 46.2486 133.774 45.3096C133.889 45.1424 133.942 45.0071 133.942 44.8918C133.942 44.8297 133.889 44.8082 133.774 44.8082L133.291 44.9753C128.631 46.4993 124.254 48.0232 120.213 49.5264C119.761 50.5076 119.425 51.4466 119.226 52.3443ZM142.517 129.143C147.66 126.889 152.237 125.073 156.162 123.694C156.393 123.517 156.676 123.016 157.012 122.108C157.128 121.941 157.159 121.827 157.159 121.711C157.159 121.659 157.128 121.628 157.012 121.628C156.844 121.628 152.352 123.183 143.514 126.346C143 127.337 142.696 128.266 142.517 129.143ZM137.269 117.641C137.437 117.474 137.605 117.359 137.773 117.307L145.194 112.36C145.445 112.14 145.708 111.567 145.929 110.69L146.012 110.188C146.012 110.105 145.991 110.043 145.929 110.043C145.593 110.043 144.71 110.522 143.262 111.514C142.381 112.026 141.751 112.276 141.446 112.276C141.1 112.276 140.617 112.109 139.967 111.765C139.337 111.43 139.033 111.149 139.033 110.867C139.033 110.585 139.285 110.272 139.767 109.959C140.281 109.625 140.701 109.447 141.1 109.447C141.551 109.447 141.929 109.729 142.265 110.272C142.328 110.387 142.381 110.439 142.433 110.439L142.517 110.355C143 109.594 143.262 108.884 143.262 108.289C143.262 107.308 142.895 106.797 142.097 106.797C140.985 106.797 139.652 107.725 138.119 109.531C137.384 110.408 137.038 111.316 137.038 112.276C137.038 113.038 137.752 113.685 139.201 114.259C138.035 115.188 137.406 115.866 137.353 116.232C137.29 116.629 137.206 117.057 137.091 117.474L137.269 117.641ZM14.2334 48.5349C15.5139 48.5349 16.4265 47.0109 16.9935 43.9838V43.5668C16.9304 43.5668 16.8784 43.5875 16.8464 43.5875C16.8464 43.6185 16.8256 43.671 16.7944 43.7339C16.7624 43.7856 16.7104 43.8485 16.6472 43.9002C15.9962 45.226 15.3979 45.8833 14.9156 45.8833C13.9495 45.8833 13.4984 45.0278 13.4984 43.3058C13.4984 42.0946 14.0127 39.9133 15.062 36.7819V36.5209L15.314 35.5405C15.2619 35.5405 15.062 35.9058 14.6637 36.6148C13.0473 39.5791 12.2491 42.4599 12.2491 45.226C12.2491 47.3762 12.9001 48.4824 14.2334 48.5349ZM138.938 123.1C140.334 122.953 142.517 122.474 145.509 121.711C148.521 120.919 150.62 120.271 151.838 119.707C154.934 118.298 157.747 115.835 160.256 112.36C163.404 107.986 165 102.444 165 95.7225C165 92.4447 164.433 86.224 163.32 77.0184C162.208 67.7706 161.673 62.3751 161.673 60.7676C161.673 60.4541 161.704 60.287 161.757 60.287L161.903 60.3706C163.121 61.6963 163.95 62.3537 164.318 62.3537C164.486 62.3537 164.57 62.2391 164.57 62.0091C164.57 61.195 163.636 58.7949 161.757 54.8073C159.856 50.8522 158.807 48.8691 158.576 48.8691C158.346 48.8691 157.978 49.8606 157.411 51.8437C157.044 53.2212 156.844 54.0146 156.844 54.2438C156.844 54.3584 157.044 54.9433 157.411 56.0495C157.81 57.1564 158.01 58.1368 158.01 58.962C158.01 60.4541 158.692 66.9565 160.077 78.4794C161.473 90.0445 162.155 97.8098 162.155 101.849C162.155 103.769 160.823 106.17 158.178 109.03C156.162 111.201 154.199 112.903 152.268 114.166C146.044 117.922 141.583 120.584 138.854 122.108C138.287 122.453 138.035 122.735 138.035 122.953C138.035 123.037 138.318 123.1 138.938 123.1Z"
            fill="#FFD705" />
    </g>
</svg>