<svg width="222" height="222" viewBox="0 0 222 222" fill="none"
    xmlns="http://www.w3.org/2000/svg">
    <path fill-rule="evenodd" clip-rule="evenodd" d="M189.287 32.4863H129.971L137.933 40.4479H189.287V32.4863Z" fill="#08A045" />
    <path fill-rule="evenodd" clip-rule="evenodd" d="M110.873 0L140.39 29.5168H127.001L110.873 13.3888L83.8142 40.448H75.0846V60.8256L62.5406 70.912H45.5677V32.4864H78.387L110.873 0ZM55.3213 40.448H65.1005V58.24L55.3213 64.512V40.448Z" fill="#08A045" />
    <path fill-rule="evenodd" clip-rule="evenodd" d="M189.287 32.4863H129.971L137.933 40.4479H189.287V32.4863Z" fill="#08A045" />
    <path fill-rule="evenodd" clip-rule="evenodd" d="M32.4606 32.4863V91.8015L40.4478 83.8399V32.4863H32.4606Z" fill="#08A045" />
    <path fill-rule="evenodd" clip-rule="evenodd" d="M0.000244141 110.873L29.517 81.3567V94.7455L13.389 110.873L40.4482 137.933V146.688H60.8002L70.9122 159.232V176.179H32.461V143.36L0.000244141 110.873ZM40.4482 166.425V156.646H58.2402L64.5122 166.425H40.4482Z" fill="#08A045" />
    <path fill-rule="evenodd" clip-rule="evenodd" d="M32.4608 189.287H91.776L83.8144 181.325H32.4608V189.287Z" fill="#08A045" />
    <path fill-rule="evenodd" clip-rule="evenodd" d="M221.747 110.874L192.23 140.391V127.027L208.358 110.874L181.299 83.8402V75.085H160.947L150.835 62.541V45.5938H189.286V78.413L221.747 110.874ZM181.299 55.3218V65.101H163.507L157.235 55.3218H181.299Z" fill="#08A045" />
    <path fill-rule="evenodd" clip-rule="evenodd" d="M110.873 221.747L81.3567 192.23H94.7455L110.873 208.384L137.933 181.325H146.662V160.947L159.206 150.835H176.179V189.286H143.36L110.873 221.747ZM166.425 181.325H156.646V163.507L166.425 157.235V181.325Z" fill="#08A045" />
    <path fill-rule="evenodd" clip-rule="evenodd" d="M189.286 189.286V129.971L181.299 137.933V189.286H189.286Z" fill="#08A045" />
    <path fill-rule="evenodd" clip-rule="evenodd" d="M97.818 33.7406L106.368 25.1646V63.3854H115.38V25.1646L123.956 33.7406V63.3086L115.508 71.0398H106.24L97.818 63.3086V33.7406Z" fill="#08A045" />
    <path fill-rule="evenodd" clip-rule="evenodd" d="M141.619 45.5938H132.89V52.7618H141.619V45.5938ZM173.184 82.9953L180.762 90.5474H155.904V82.9953H173.184ZM132.89 72.4738V66.3298H140.339V75.085H144.256V66.3298L152.909 77.4402V90.5474H144.256V81.4338H140.339L132.89 72.4738ZM141.619 56.3458H132.89V63.5138H141.619V56.3458Z" fill="#08A045" />
    <path fill-rule="evenodd" clip-rule="evenodd" d="M45.9009 79.8206V88.5502H53.0689V79.8206H45.9009ZM83.3025 48.2558L90.8801 40.6782V65.5358H83.3025V48.2558ZM72.7809 88.5502H66.6369V81.075H75.3921V77.1838H66.6369L77.7473 68.531H90.8801V77.1838H81.7409V81.075L72.7809 88.5502ZM56.6529 79.8206V88.5502H63.8209V79.8206H56.6529Z" fill="#08A045" />
    <path fill-rule="evenodd" clip-rule="evenodd" d="M123.93 188.032L115.379 196.608V158.387H106.368V196.608L97.7922 188.032V158.464L106.24 150.707H115.482L123.93 158.464V188.032Z" fill="#08A045" />
    <path fill-rule="evenodd" clip-rule="evenodd" d="M33.7156 123.955L25.1652 115.379H63.386V106.393H25.1652L33.7156 97.8174H63.2836L71.0404 106.265V115.507L63.2836 123.955H33.7156Z" fill="#08A045" />
    <path fill-rule="evenodd" clip-rule="evenodd" d="M188.032 123.93L196.608 115.379H158.387V106.368H196.608L188.032 97.792H158.464L150.733 106.24V115.482L158.464 123.93H188.032Z" fill="#08A045" />
    <path fill-rule="evenodd" clip-rule="evenodd" d="M80.1285 176.179H88.8581V169.011H80.1285V176.179ZM48.5381 138.778L40.9861 131.2H65.8181V138.778H48.5381ZM88.8581 149.299V155.443H81.3829V146.688H77.4917V155.443L68.8389 144.333V131.2H77.4917V140.339H81.3829L88.8581 149.299ZM80.1285 165.427H88.8581V158.259H80.1285V165.427Z" fill="#08A045" />
    <path fill-rule="evenodd" clip-rule="evenodd" d="M175.847 141.926V133.222H168.679V141.926H175.847ZM138.445 173.517L130.867 181.094V156.237H138.445V173.517ZM148.967 133.222H155.111V140.672H146.355V144.589H155.111L144 153.216H130.867V144.589H140.007V140.672L148.967 133.222ZM165.095 141.926V133.222H157.927V141.926H165.095Z" fill="#08A045" />
    <path d="M99.7379 99.2256H99.7635C107.213 91.7504 115.2 86.1952 122.061 83.2256C129.101 80.2048 135.015 79.8976 138.163 83.0464C141.312 86.1952 141.005 92.1344 137.984 99.1488C135.04 106.01 129.459 113.997 122.01 121.472H121.984C114.535 128.947 106.547 134.502 99.6867 137.472C92.6467 140.493 86.7331 140.8 83.5843 137.651C80.4355 134.502 80.7427 128.563 83.7635 121.549C86.7075 114.688 92.2883 106.701 99.7379 99.2256ZM100.634 100.096H100.608C93.2611 107.469 87.7827 115.302 84.8899 122.035C82.0739 128.589 81.6899 134.016 84.4547 136.781C87.1939 139.52 92.6467 139.162 99.2003 136.32C105.933 133.427 113.767 127.974 121.114 120.602H121.139C128.487 113.229 133.965 105.395 136.858 98.6624C139.674 92.1088 140.058 86.6816 137.293 83.9168C134.554 81.1776 129.101 81.536 122.547 84.352C115.815 87.2704 107.981 92.7232 100.634 100.096Z" fill="#C5D85A" />
    <path d="M101.503 100.992C107.826 94.6687 114.559 89.9839 120.345 87.4751C126.284 84.9407 131.25 84.6847 133.887 87.3215C136.55 89.9583 136.294 94.9503 133.734 100.864C131.25 106.649 126.54 113.408 120.242 119.705C113.919 126.029 107.186 130.713 101.401 133.222C95.4616 135.757 90.4952 136.013 87.8584 133.376C85.196 130.739 85.452 125.747 88.012 119.833C90.4952 114.022 95.2056 107.289 101.503 100.992ZM102.169 101.632C95.948 107.878 91.3144 114.509 88.8568 120.192C86.4504 125.747 86.1432 130.381 88.4984 132.71C90.8536 135.065 95.4616 134.758 101.017 132.352C106.726 129.92 113.356 125.286 119.577 119.065C125.798 112.819 130.431 106.189 132.889 100.505C135.295 94.9503 135.602 90.3167 133.247 87.9871C130.892 85.6319 126.284 85.9391 120.729 88.3455C115.02 90.7775 108.39 95.4111 102.169 101.632Z" fill="#C5D85A" />
    <path d="M103.065 102.528C108.364 97.254 114.022 93.3116 118.86 91.2124C123.826 89.0876 127.974 88.8572 130.175 91.0588C132.351 93.2604 132.146 97.4076 130.022 102.348C127.922 107.212 123.98 112.87 118.681 118.144V118.169C113.382 123.443 107.724 127.385 102.886 129.484C97.9192 131.609 93.772 131.84 91.5704 129.638C89.3944 127.436 89.5992 123.289 91.724 118.348C93.8232 113.484 97.7656 107.827 103.065 102.528ZM103.5 102.963C98.252 108.211 94.3608 113.792 92.2872 118.579C90.2648 123.289 90.0088 127.206 92.0056 129.203C94.0024 131.2 97.9192 130.944 102.63 128.921C107.417 126.848 112.998 122.956 118.246 117.708C123.494 112.486 127.385 106.905 129.458 102.118C131.481 97.4076 131.737 93.4908 129.74 91.494C127.743 89.4972 123.826 89.7532 119.116 91.7756C114.329 93.8492 108.748 97.7404 103.5 102.963Z" fill="#C5D85A" />
    <path d="M104.729 104.217C108.928 100.019 113.408 96.8958 117.248 95.2318C121.139 93.5678 124.416 93.3886 126.131 95.1038C127.846 96.819 127.667 100.07 125.977 103.961C124.313 107.801 121.19 112.281 117.017 116.48C112.819 120.678 108.339 123.801 104.499 125.465C100.608 127.129 97.3311 127.309 95.6159 125.593C93.9007 123.878 94.0799 120.627 95.7695 116.736C97.4335 112.896 100.557 108.416 104.729 104.217ZM117.376 95.5134C113.561 97.1774 109.133 100.275 104.96 104.422C100.787 108.595 97.6895 113.049 96.0511 116.864C94.4383 120.627 94.2335 123.75 95.8463 125.389C97.4591 127.001 100.608 126.797 104.371 125.158C108.185 123.52 112.614 120.422 116.787 116.275C120.96 112.102 124.057 107.648 125.696 103.833C127.309 100.07 127.513 96.9214 125.901 95.3086C124.288 93.6958 121.139 93.9006 117.376 95.5134Z" fill="#C5D85A" />
    <path d="M106.086 105.549C109.363 102.297 112.845 99.8653 115.84 98.5597C118.886 97.2541 121.421 97.1261 122.778 98.4573C124.109 99.7885 123.955 102.323 122.65 105.369C121.37 108.365 118.938 111.872 115.661 115.123C112.384 118.4 108.902 120.832 105.907 122.137C102.861 123.443 100.326 123.571 98.9696 122.24C97.6384 120.909 97.792 118.349 99.0976 115.328C100.378 112.333 102.81 108.825 106.086 105.549ZM115.942 98.7901C112.973 100.07 109.517 102.477 106.266 105.728C103.014 108.979 100.582 112.461 99.3024 115.43C98.048 118.374 97.8944 120.806 99.1488 122.061C100.403 123.315 102.861 123.161 105.805 121.907C108.774 120.627 112.23 118.221 115.482 114.969C118.733 111.718 121.165 108.237 122.445 105.267C123.699 102.323 123.853 99.8909 122.598 98.6365C121.344 97.3565 118.886 97.5101 115.942 98.7901Z" fill="#C5D85A" />
    <path d="M107.647 107.111C109.849 104.883 112.23 103.245 114.252 102.349C116.326 101.479 118.041 101.376 118.937 102.272C119.833 103.194 119.756 104.909 118.86 106.957C117.99 109.005 116.326 111.36 114.099 113.587C111.897 115.815 109.516 117.453 107.494 118.323C105.42 119.219 103.705 119.322 102.809 118.426C101.913 117.504 101.99 115.789 102.886 113.741C103.756 111.693 105.42 109.338 107.647 107.111ZM114.303 102.477C112.281 103.347 109.926 104.986 107.724 107.187C105.523 109.415 103.859 111.77 102.988 113.792C102.143 115.789 102.041 117.453 102.886 118.323C103.756 119.194 105.42 119.091 107.443 118.221C109.465 117.351 111.82 115.712 114.022 113.485C116.223 111.283 117.887 108.928 118.758 106.906C119.603 104.909 119.705 103.219 118.86 102.375C117.99 101.504 116.326 101.607 114.303 102.477Z" fill="#C5D85A" />
    <path d="M108.723 108.211C110.182 106.752 111.743 105.651 113.1 105.088C114.457 104.499 115.583 104.448 116.172 105.037C116.787 105.626 116.71 106.778 116.147 108.134C115.558 109.466 114.483 111.027 113.023 112.486C111.564 113.946 110.003 115.021 108.646 115.61C107.289 116.198 106.163 116.25 105.574 115.661C104.959 115.046 105.036 113.92 105.599 112.563C106.188 111.232 107.263 109.67 108.723 108.211ZM113.126 105.19C111.82 105.779 110.259 106.854 108.825 108.288C107.366 109.747 106.291 111.283 105.727 112.614C105.164 113.92 105.087 115.021 105.651 115.558C106.214 116.122 107.289 116.07 108.62 115.507C109.926 114.918 111.487 113.843 112.921 112.41C114.38 110.95 115.455 109.414 116.019 108.083C116.582 106.778 116.659 105.677 116.095 105.114C115.532 104.576 114.457 104.627 113.126 105.19Z" fill="#C5D85A" />
    <path d="M109.645 109.107C110.464 108.262 111.386 107.648 112.154 107.315C112.922 106.982 113.587 106.931 113.946 107.289C114.279 107.622 114.253 108.288 113.92 109.081C113.587 109.849 112.947 110.745 112.103 111.59C111.283 112.435 110.362 113.049 109.594 113.382C108.826 113.715 108.16 113.766 107.802 113.408C107.469 113.049 107.495 112.409 107.827 111.616C108.16 110.848 108.8 109.952 109.645 109.107ZM112.179 107.392C111.411 107.725 110.541 108.339 109.696 109.184C108.877 110.003 108.263 110.899 107.93 111.667C107.597 112.409 107.571 113.024 107.879 113.331C108.186 113.664 108.826 113.613 109.568 113.305C110.336 112.973 111.207 112.358 112.051 111.513C112.871 110.694 113.485 109.798 113.818 109.03C114.151 108.288 114.176 107.673 113.869 107.341C113.562 107.033 112.922 107.085 112.179 107.392Z" fill="#C5D85A" />
    <path d="M122.01 99.2256H121.984C114.535 91.7504 106.547 86.1952 99.6867 83.2256C92.6467 80.2048 86.7331 79.8976 83.5843 83.0464C80.4355 86.1952 80.7427 92.1344 83.7635 99.1488C86.7075 106.01 92.2883 113.997 99.7379 121.472H99.7635C107.213 128.947 115.2 134.502 122.061 137.472C129.101 140.493 135.015 140.8 138.163 137.651C141.312 134.502 141.005 128.563 137.984 121.549C135.04 114.688 129.459 106.701 122.01 99.2256ZM121.114 100.096H121.139C128.487 107.469 133.965 115.302 136.858 122.035C139.674 128.589 140.058 134.016 137.293 136.781C134.554 139.52 129.101 139.162 122.547 136.32C115.815 133.427 107.981 127.974 100.634 120.602H100.608C93.2611 113.229 87.7827 105.395 84.8899 98.6624C82.0739 92.1088 81.6899 86.6816 84.4547 83.9168C87.1939 81.1776 92.6467 81.536 99.2003 84.352C105.933 87.2704 113.767 92.7232 121.114 100.096Z" fill="#C5D85A" />
    <path d="M120.242 100.992C113.919 94.6687 107.186 89.9839 101.401 87.4751C95.4616 84.9407 90.4952 84.6847 87.8584 87.3215C85.196 89.9583 85.452 94.9503 88.012 100.864C90.4952 106.649 95.2056 113.408 101.503 119.705C107.826 126.029 114.559 130.713 120.345 133.222C126.284 135.757 131.25 136.013 133.887 133.376C136.55 130.739 136.294 125.747 133.734 119.833C131.25 114.022 126.54 107.289 120.242 100.992ZM119.577 101.632C125.798 107.878 130.431 114.509 132.889 120.192C135.295 125.747 135.602 130.381 133.247 132.71C130.892 135.065 126.284 134.758 120.729 132.352C115.02 129.92 108.39 125.286 102.169 119.065C95.948 112.819 91.3144 106.189 88.8568 100.505C86.4504 94.9503 86.1432 90.3167 88.4984 87.9871C90.8536 85.6319 95.4616 85.9391 101.017 88.3455C106.726 90.7775 113.356 95.4111 119.577 101.632Z" fill="#C5D85A" />
    <path d="M118.681 102.528C113.382 97.254 107.724 93.3116 102.886 91.2124C97.9192 89.0876 93.772 88.8572 91.5704 91.0588C89.3944 93.2604 89.5992 97.4076 91.724 102.348C93.8232 107.212 97.7656 112.87 103.065 118.144V118.169C108.364 123.443 114.022 127.385 118.86 129.484C123.826 131.609 127.974 131.84 130.175 129.638C132.351 127.436 132.146 123.289 130.022 118.348C127.922 113.484 123.98 107.827 118.681 102.528ZM118.246 102.963C123.494 108.211 127.385 113.792 129.458 118.579C131.481 123.289 131.737 127.206 129.74 129.203C127.743 131.2 123.826 130.944 119.116 128.921C114.329 126.848 108.748 122.956 103.5 117.708C98.252 112.486 94.3608 106.905 92.2872 102.118C90.2648 97.4076 90.0088 93.4908 92.0056 91.494C94.0024 89.4972 97.9192 89.7532 102.63 91.7756C107.417 93.8492 112.998 97.7404 118.246 102.963Z" fill="#C5D85A" />
    <path d="M117.017 104.217C112.819 100.019 108.339 96.8958 104.499 95.2318C100.608 93.5678 97.3311 93.3886 95.6159 95.1038C93.9007 96.819 94.0799 100.07 95.7695 103.961C97.4335 107.801 100.557 112.281 104.729 116.48C108.928 120.678 113.408 123.801 117.248 125.465C121.139 127.129 124.416 127.309 126.131 125.593C127.846 123.878 127.667 120.627 125.977 116.736C124.313 112.896 121.19 108.416 117.017 104.217ZM104.371 95.5134C108.185 97.1774 112.614 100.275 116.787 104.422C120.96 108.595 124.057 113.049 125.696 116.864C127.309 120.627 127.513 123.75 125.901 125.389C124.288 127.001 121.139 126.797 117.376 125.158C113.561 123.52 109.133 120.422 104.96 116.275C100.787 112.102 97.6895 107.648 96.0511 103.833C94.4383 100.07 94.2335 96.9214 95.8463 95.3086C97.4591 93.6958 100.608 93.9006 104.371 95.5134Z" fill="#C5D85A" />
    <path d="M115.661 105.549C112.384 102.297 108.902 99.8653 105.907 98.5597C102.861 97.2541 100.326 97.1261 98.9696 98.4573C97.6384 99.7885 97.792 102.323 99.0976 105.369C100.378 108.365 102.81 111.872 106.086 115.123C109.363 118.4 112.845 120.832 115.84 122.137C118.886 123.443 121.421 123.571 122.778 122.24C124.109 120.909 123.955 118.349 122.65 115.328C121.37 112.333 118.938 108.825 115.661 105.549ZM105.805 98.7901C108.774 100.07 112.23 102.477 115.482 105.728C118.733 108.979 121.165 112.461 122.445 115.43C123.699 118.374 123.853 120.806 122.598 122.061C121.344 123.315 118.886 123.161 115.942 121.907C112.973 120.627 109.517 118.221 106.266 114.969C103.014 111.718 100.582 108.237 99.3024 105.267C98.048 102.323 97.8944 99.8909 99.1488 98.6365C100.403 97.3565 102.861 97.5101 105.805 98.7901Z" fill="#C5D85A" />
    <path d="M114.099 107.111C111.897 104.883 109.516 103.245 107.494 102.349C105.42 101.479 103.705 101.376 102.809 102.272C101.913 103.194 101.99 104.909 102.886 106.957C103.756 109.005 105.42 111.36 107.647 113.587C109.849 115.815 112.23 117.453 114.252 118.323C116.326 119.219 118.041 119.322 118.937 118.426C119.833 117.504 119.756 115.789 118.86 113.741C117.99 111.693 116.326 109.338 114.099 107.111ZM107.443 102.477C109.465 103.347 111.82 104.986 114.022 107.187C116.223 109.415 117.887 111.77 118.758 113.792C119.603 115.789 119.705 117.453 118.86 118.323C117.99 119.194 116.326 119.091 114.303 118.221C112.281 117.351 109.926 115.712 107.724 113.485C105.523 111.283 103.859 108.928 102.988 106.906C102.143 104.909 102.041 103.219 102.886 102.375C103.756 101.504 105.42 101.607 107.443 102.477Z" fill="#C5D85A" />
    <path d="M113.023 108.211C111.564 106.752 110.003 105.651 108.646 105.088C107.289 104.499 106.163 104.448 105.574 105.037C104.959 105.626 105.036 106.778 105.599 108.134C106.188 109.466 107.263 111.027 108.723 112.486C110.182 113.946 111.743 115.021 113.1 115.61C114.457 116.198 115.583 116.25 116.172 115.661C116.787 115.046 116.71 113.92 116.147 112.563C115.558 111.232 114.483 109.67 113.023 108.211ZM108.62 105.19C109.926 105.779 111.487 106.854 112.921 108.288C114.38 109.747 115.455 111.283 116.019 112.614C116.582 113.92 116.659 115.021 116.095 115.558C115.532 116.122 114.457 116.07 113.126 115.507C111.82 114.918 110.259 113.843 108.825 112.41C107.366 110.95 106.291 109.414 105.727 108.083C105.164 106.778 105.087 105.677 105.651 105.114C106.214 104.576 107.289 104.627 108.62 105.19Z" fill="#C5D85A" />
    <path d="M112.103 109.107C111.283 108.262 110.362 107.648 109.594 107.315C108.826 106.982 108.16 106.931 107.802 107.289C107.469 107.622 107.495 108.288 107.827 109.081C108.16 109.849 108.8 110.745 109.645 111.59C110.464 112.435 111.386 113.049 112.154 113.382C112.922 113.715 113.587 113.766 113.946 113.408C114.279 113.049 114.253 112.409 113.92 111.616C113.587 110.848 112.947 109.952 112.103 109.107ZM109.568 107.392C110.336 107.725 111.207 108.339 112.051 109.184C112.871 110.003 113.485 110.899 113.818 111.667C114.151 112.409 114.176 113.024 113.869 113.331C113.562 113.664 112.922 113.613 112.179 113.305C111.411 112.973 110.541 112.358 109.696 111.513C108.877 110.694 108.263 109.798 107.93 109.03C107.597 108.288 107.571 107.673 107.879 107.341C108.186 107.033 108.826 107.085 109.568 107.392Z" fill="#C5D85A" />
    <path fill-rule="evenodd" clip-rule="evenodd" d="M111.437 78.5922V142.08C112.359 142.336 113.024 143.181 113.024 144.179C113.024 145.357 112.077 146.33 110.874 146.33C109.671 146.33 108.723 145.357 108.723 144.179C108.723 143.181 109.389 142.336 110.311 142.08V78.5922C109.389 78.3618 108.723 77.517 108.723 76.5186C108.723 75.341 109.671 74.3682 110.874 74.3682C112.077 74.3682 113.024 75.341 113.024 76.5186C113.024 77.517 112.359 78.3618 111.437 78.5922Z" fill="#C5D85A" />
</svg>